<svg width="32" height="32" viewBox="0 0 32 32" fill="none" xmlns="http://www.w3.org/2000/svg">
<path fill-rule="evenodd" clip-rule="evenodd" d="M12.4428 4.44285C12.1299 4.75572 12 5.10035 12 5.33337V6.66671H20V5.33337C20 5.10035 19.87 4.75572 19.5571 4.44285C19.2443 4.12998 18.8996 4.00004 18.6666 4.00004H13.3333C13.1003 4.00004 12.7556 4.12998 12.4428 4.44285ZM22.6666 6.66671V5.33337C22.6666 4.23307 22.1299 3.24436 21.4428 2.55723C20.7556 1.8701 19.7669 1.33337 18.6666 1.33337H13.3333C12.233 1.33337 11.2443 1.8701 10.5571 2.55723C9.87002 3.24436 9.33329 4.23307 9.33329 5.33337V6.66671H3.99996C3.26358 6.66671 2.66663 7.26366 2.66663 8.00004C2.66663 8.73642 3.26358 9.33337 3.99996 9.33337H5.33329V26.6667C5.33329 27.767 5.87002 28.7557 6.55715 29.4429C7.24428 30.13 8.23298 30.6667 9.33329 30.6667H22.6666C23.7669 30.6667 24.7556 30.13 25.4428 29.4429C26.1299 28.7557 26.6666 27.767 26.6666 26.6667V9.33337H28C28.7363 9.33337 29.3333 8.73642 29.3333 8.00004C29.3333 7.26366 28.7363 6.66671 28 6.66671H22.6666ZM7.99996 9.33337V26.6667C7.99996 26.8997 8.1299 27.2444 8.44277 27.5572C8.75564 27.8701 9.10027 28 9.33329 28H22.6666C22.8996 28 23.2443 27.8701 23.5571 27.5572C23.87 27.2444 24 26.8997 24 26.6667V9.33337H7.99996ZM13.3333 13.3334C14.0697 13.3334 14.6666 13.9303 14.6666 14.6667V22.6667C14.6666 23.4031 14.0697 24 13.3333 24C12.5969 24 12 23.4031 12 22.6667V14.6667C12 13.9303 12.5969 13.3334 13.3333 13.3334ZM18.6666 13.3334C19.403 13.3334 20 13.9303 20 14.6667V22.6667C20 23.4031 19.403 24 18.6666 24C17.9302 24 17.3333 23.4031 17.3333 22.6667V14.6667C17.3333 13.9303 17.9302 13.3334 18.6666 13.3334Z" fill="black"/>
</svg>
