<svg width="32" height="32" viewBox="0 0 32 32" fill="none" xmlns="http://www.w3.org/2000/svg">
<path fill-rule="evenodd" clip-rule="evenodd" d="M15.9999 4.00004C9.3725 4.00004 3.99992 9.37262 3.99992 16C3.99992 22.6275 9.3725 28 15.9999 28C22.6273 28 27.9999 22.6275 27.9999 16C27.9999 9.37262 22.6273 4.00004 15.9999 4.00004ZM1.33325 16C1.33325 7.89986 7.89974 1.33337 15.9999 1.33337C24.1001 1.33337 30.6666 7.89986 30.6666 16C30.6666 24.1002 24.1001 30.6667 15.9999 30.6667C7.89974 30.6667 1.33325 24.1002 1.33325 16ZM15.9999 9.33337C16.7363 9.33337 17.3333 9.93033 17.3333 10.6667V16C17.3333 16.7364 16.7363 17.3334 15.9999 17.3334C15.2635 17.3334 14.6666 16.7364 14.6666 16V10.6667C14.6666 9.93033 15.2635 9.33337 15.9999 9.33337ZM14.6666 21.3334C14.6666 20.597 15.2635 20 15.9999 20H16.0133C16.7496 20 17.3466 20.597 17.3466 21.3334C17.3466 22.0698 16.7496 22.6667 16.0133 22.6667H15.9999C15.2635 22.6667 14.6666 22.0698 14.6666 21.3334Z" fill="black"/>
</svg>
