<svg width="32" height="32" viewBox="0 0 32 32" fill="none" xmlns="http://www.w3.org/2000/svg">
<path fill-rule="evenodd" clip-rule="evenodd" d="M16 1.33337C16.5075 1.33337 16.971 1.62147 17.1956 2.07654L21.0057 9.79533L29.5262 11.0407C30.0283 11.1141 30.4452 11.4661 30.6017 11.9488C30.7582 12.4315 30.6272 12.9611 30.2637 13.3152L24.0994 19.3192L25.5542 27.8013C25.64 28.3016 25.4343 28.8071 25.0237 29.1054C24.613 29.4038 24.0686 29.443 23.6194 29.2068L16 25.1998L8.38062 29.2068C7.9314 29.443 7.38701 29.4038 6.97637 29.1054C6.56574 28.8071 6.36008 28.3016 6.44587 27.8013L7.90066 19.3192L1.73637 13.3152C1.37288 12.9611 1.24185 12.4315 1.39836 11.9488C1.55486 11.4661 1.97177 11.1141 2.47385 11.0407L10.9943 9.79533L14.8044 2.07654C15.029 1.62147 15.4925 1.33337 16 1.33337ZM16 5.67905L13.0756 11.6035C12.8816 11.9967 12.5067 12.2693 12.0729 12.3327L5.53123 13.2888L10.2637 17.8982C10.5782 18.2046 10.7217 18.6461 10.6475 19.0788L9.53093 25.5889L15.3794 22.5133C15.7679 22.309 16.2321 22.309 16.6206 22.5133L22.4691 25.5889L21.3525 19.0788C21.2783 18.6461 21.4219 18.2046 21.7364 17.8982L26.4688 13.2888L19.9272 12.3327C19.4934 12.2693 19.1185 11.9967 18.9244 11.6035L16 5.67905Z" fill="black"/>
</svg>
